<svg xmlns="http://www.w3.org/2000/svg" width="800" height="240" viewBox="0 0 800 240">
  <defs>
    <linearGradient id="bg" x1="0%" y1="0%" x2="100%" y2="100%">
      <stop offset="0%" style="stop-color:#1a0a0a"/>
      <stop offset="100%" style="stop-color:#3b1212"/>
    </linearGradient>
    <linearGradient id="accent" x1="0%" y1="0%" x2="100%" y2="0%">
      <stop offset="0%" style="stop-color:#ef4444"/>
      <stop offset="100%" style="stop-color:#f87171"/>
    </linearGradient>
  </defs>
  <rect width="800" height="240" rx="16" fill="url(#bg)"/>
  <rect x="40" y="40" width="720" height="4" rx="2" fill="url(#accent)"/>

  <!-- Shield icon -->
  <path d="M140 80 L140 110 Q140 145 175 160 Q210 145 210 110 L210 80 Z" fill="none" stroke="#ef4444" stroke-width="4"/>
  <text x="165" y="130" font-family="sans-serif" font-size="18" fill="#f87171" text-anchor="middle">✓</text>

  <!-- Lock icon -->
  <rect x="155" y="140" width="40" height="30" rx="3" fill="none" stroke="#ef4444" stroke-width="3"/>
  <path d="M165 140 L165 125 Q165 110 175 110 Q185 110 185 125 L185 140" fill="none" stroke="#ef4444" stroke-width="3"/>

  <!-- Title -->
  <text x="220" y="120" font-family="monospace" font-size="30" font-weight="bold" fill="#ffffff">security-audit-agent</text>

  <!-- Tagline -->
  <text x="220" y="150" font-family="sans-serif" font-size="15" fill="#a0a0a0">
    Cybersecurity Auditing Agent
  </text>
  <text x="220" y="170" font-family="sans-serif" font-size="13" fill="#666666">
    OWASP A01-A11 · Mobile · Cloud · LLM/AI · Infra
  </text>

  <!-- Powered by ITHub badge -->
  <rect x="530" y="130" width="160" height="36" rx="8" fill="#2a1515" stroke="#ef4444" stroke-width="1.5"/>
  <text x="610" y="153" font-family="sans-serif" font-size="14" font-weight="bold" fill="#f87171" text-anchor="middle">Powered by ITHub</text>

  <!-- Bottom accent bar -->
  <rect x="40" y="196" width="720" height="1" rx="0.5" fill="#2a1515"/>

  <!-- by ITHub -->
  <text x="400" y="222" font-family="sans-serif" font-size="14" font-weight="bold" fill="#777777" text-anchor="middle">by ITHub</text>
</svg>
